<?xml version="1.0" standalone="no"?>
<!DOCTYPE svg PUBLIC "-//W3C//DTD SVG 20010904//EN"
 "http://www.w3.org/TR/2001/REC-SVG-20010904/DTD/svg10.dtd">
<svg version="1.0" xmlns="http://www.w3.org/2000/svg"
 width="341.000000pt" height="341.000000pt" viewBox="0 0 341.000000 341.000000"
 preserveAspectRatio="xMidYMid meet">
<metadata>
Created by potrace 1.11, written by Peter Selinger 2001-2013
</metadata>
<g transform="translate(0.000000,341.000000) scale(0.100000,-0.100000)"
fill="#000000" stroke="none">
<path d="M645 3402 c-2 -2 -25 -5 -52 -7 -57 -4 -80 -9 -89 -17 -3 -4 -12 -4
-20 -1 -8 3 -14 -1 -14 -8 0 -7 -3 -9 -7 -6 -3 4 -17 0 -31 -9 -13 -9 -22 -12
-18 -6 3 5 -12 0 -34 -10 -22 -11 -40 -24 -40 -30 0 -5 -5 -6 -10 -3 -6 3 -13
-1 -16 -9 -3 -9 -10 -14 -14 -11 -4 3 -11 -2 -14 -11 -3 -8 -10 -12 -16 -9 -5
3 -10 2 -10 -3 0 -5 -11 -15 -25 -22 -13 -7 -22 -17 -20 -21 3 -4 -4 -10 -15
-14 -11 -4 -18 -10 -15 -15 3 -5 2 -10 -2 -12 -5 -2 -21 -18 -38 -37 -16 -19
-24 -31 -17 -27 11 7 11 4 1 -12 -7 -12 -17 -18 -21 -16 -5 3 -8 2 -7 -3 1 -4
-9 -30 -22 -58 -13 -27 -24 -53 -25 -57 -1 -5 -2 -9 -4 -10 -3 -5 -11 -41 -15
-68 -1 -14 -4 -25 -5 -25 -9 0 -12 -242 -11 -1150 0 -1049 1 -1145 12 -1145 3
0 6 -10 6 -22 1 -20 8 -54 13 -68 1 -3 2 -8 1 -12 0 -5 4 -8 10 -8 5 0 7 -4 4
-10 -3 -5 -1 -10 4 -10 6 0 10 -3 9 -8 -3 -12 13 -52 22 -52 4 0 11 -7 14 -16
4 -10 2 -13 -6 -8 -7 4 -2 -7 11 -24 12 -17 30 -36 39 -42 9 -5 13 -10 8 -10
-5 0 5 -13 22 -28 18 -16 30 -31 27 -34 -3 -2 7 -11 23 -19 15 -7 34 -20 43
-29 39 -36 61 -50 69 -45 6 4 10 1 10 -4 0 -6 7 -11 15 -11 8 0 15 -5 15 -11
0 -6 6 -9 14 -6 8 3 16 1 18 -4 2 -5 13 -11 26 -12 12 0 22 -5 22 -9 0 -4 3
-7 7 -7 5 1 11 0 16 -1 4 -1 16 -4 27 -5 11 -1 21 -4 23 -5 9 -9 222 -11 1162
-11 905 0 1097 2 1193 13 6 1 12 5 12 9 0 4 9 6 20 4 11 -2 20 1 20 6 0 6 4 8
9 4 5 -3 12 -1 16 5 4 6 11 8 16 5 5 -4 9 -2 9 4 0 6 7 7 17 4 10 -4 14 -2 10
4 -6 9 29 25 49 23 3 -1 14 8 23 19 10 12 23 21 28 21 6 0 18 10 27 22 9 13
14 16 10 8 -4 -8 16 10 44 40 28 30 52 59 52 63 0 5 5 5 12 1 6 -4 8 -3 5 3
-4 5 2 19 11 29 19 20 36 54 34 67 -1 4 3 7 9 7 5 0 7 5 4 10 -3 6 -2 10 3 10
9 0 27 47 24 63 -1 4 2 7 7 7 6 0 8 9 6 20 -2 11 0 20 5 20 5 0 7 6 4 14 -3 8
-1 17 4 20 5 3 8 24 6 48 -2 23 0 47 4 52 12 17 4 2211 -8 2211 -2 0 -5 13
-14 52 -2 12 -10 31 -16 43 -6 11 -9 24 -6 29 3 5 -1 14 -9 21 -8 7 -12 16 -9
21 3 5 -1 12 -10 15 -9 3 -12 12 -9 21 4 9 2 14 -3 10 -6 -3 -16 3 -23 15 -10
16 -10 19 1 13 7 -4 0 5 -15 19 -15 14 -24 26 -20 26 4 0 0 5 -9 11 -10 5 -18
16 -18 24 0 8 -5 17 -12 21 -7 5 -8 3 -3 -7 8 -12 6 -12 -8 0 -9 7 -14 17 -11
22 3 5 2 8 -3 7 -5 -2 -19 7 -33 20 -13 12 -30 22 -37 22 -7 0 -13 3 -13 8 0
4 -12 16 -27 26 -16 12 -23 14 -18 5 5 -8 1 -7 -12 4 -11 9 -23 14 -26 10 -4
-3 -7 -1 -7 5 0 7 -3 11 -7 10 -5 -1 -18 3 -29 10 -12 6 -24 8 -28 5 -3 -3 -6
-1 -6 6 0 7 -4 10 -9 6 -5 -3 -12 -1 -15 3 -3 5 -17 8 -31 7 -14 -2 -25 0 -25
4 0 4 -15 8 -32 9 -67 4 -2189 7 -2193 4z"/>
</g>
</svg>
